<svg width="128" height="128" viewBox="0 0 128 128" fill="none" xmlns="http://www.w3.org/2000/svg">
<rect width="128" height="128" fill="white"/>
<path d="M126.67 98.4402C122.11 99.6002 119.29 98.4902 116.76 94.6902C111.08 86.1802 104.81 78.0602 98.76 69.7902C97.98 68.7202 97.17 67.6702 96.16 66.3402C89 76.0002 81.85 85.2002 75.14 94.7702C72.74 98.1902 70.22 99.6802 65.74 98.4702L92.66 62.3402L67.6 29.7102C71.91 28.8702 74.89 29.3002 77.53 33.1602C83.36 41.6802 89.79 49.7902 96.2 58.3702C102.65 49.8202 109 41.7002 115 33.2602C117.41 29.8402 120 28.5402 124.33 29.8002C121.05 34.1502 117.84 38.4302 114.61 42.6802C110.25 48.4102 105.97 54.2102 101.45 59.8202C99.84 61.8202 100.1 63.1202 101.54 65.0102C109.9 76.0002 118.16 87.1002 126.67 98.4402ZM1.33005 61.7402C2.05005 58.1302 2.53005 54.4502 3.53005 50.9102C9.53005 29.4802 34.13 20.5702 51.03 33.8502C60.93 41.6402 63.3901 52.6202 62.9001 65.0002H7.10005C6.26005 87.2102 22.2501 100.62 42.6301 93.7802C49.7801 91.3802 53.99 85.7802 56.1 78.7802C57.17 75.2702 58.9401 74.7202 62.2401 75.7202C60.5501 84.4802 56.7201 91.8002 48.7201 96.3802C36.7201 103.24 19.59 101.02 10.58 91.4902C5.26005 85.8902 3.00005 78.9202 2.00005 71.3902C1.85005 70.1902 1.54005 69.0102 1.30005 67.8202C1.32005 65.7935 1.33005 63.7668 1.33005 61.7402V61.7402ZM7.20005 60.2502H57.6301C57.3001 44.1902 47.3001 32.7802 33.6301 32.6802C18.6301 32.5602 7.85005 43.7002 7.20005 60.2502V60.2502Z" fill="black"/>
</svg>
