<svg width="136" height="136" viewBox="0 0 136 136" fill="none" xmlns="http://www.w3.org/2000/svg">
<circle cx="67.5453" cy="68.0718" r="67.5" fill="white"/>
<path d="M123.898 100.208C119.711 101.273 117.122 100.254 114.799 96.765C109.583 88.9512 103.826 81.4956 98.2714 73.9022C97.5552 72.9198 96.8115 71.9557 95.8841 70.7345C89.3099 79.6041 82.7449 88.0514 76.5839 96.8384C74.3803 99.9786 72.0665 101.347 67.953 100.236L92.6705 67.0618L69.6608 37.1016C73.6182 36.3303 76.3544 36.7251 78.7784 40.2693C84.1314 48.0922 90.0353 55.5386 95.9208 63.4166C101.843 55.5662 107.674 48.1105 113.183 40.3611C115.395 37.2209 117.774 36.0273 121.749 37.1842C118.738 41.1783 115.79 45.1081 112.825 49.0104C108.821 54.2715 104.891 59.597 100.741 64.748C99.263 66.5843 99.5017 67.778 100.824 69.5133C108.5 79.6042 116.084 89.796 123.898 100.208ZM8.81301 66.5109C9.4741 63.1963 9.91482 59.8174 10.833 56.567C16.3421 36.8904 38.9293 28.7094 54.4466 40.9028C63.5366 48.0555 65.7953 58.1371 65.3454 69.5042H14.1109C13.3396 89.897 28.0214 102.21 46.7339 95.9294C53.2989 93.7258 57.1644 88.584 59.1018 82.1567C60.0842 78.9339 61.7094 78.4289 64.7394 79.3471C63.1877 87.3903 59.671 94.1114 52.3256 98.3167C41.3074 104.615 25.579 102.577 17.3062 93.8268C12.4215 88.685 10.3464 82.2852 9.42819 75.3713C9.29046 74.2695 9.00582 73.1861 8.78546 72.0934C8.80383 70.2326 8.81301 68.3717 8.81301 66.5109V66.5109ZM14.2027 65.1428H60.5066C60.2036 50.3968 51.0218 39.9204 38.4703 39.8286C24.6975 39.7184 14.7995 49.9469 14.2027 65.1428V65.1428Z" fill="black"/>
</svg>
