<svg width="150" height="128" viewBox="0 0 150 128" fill="none" xmlns="http://www.w3.org/2000/svg">
<rect width="150" height="128" fill="white"/>
<path d="M139.865 98.4402C135.193 99.6002 132.304 98.4902 129.712 94.6902C123.893 86.1802 117.469 78.0602 111.27 69.7902C110.471 68.7202 109.641 67.6702 108.606 66.3402C101.271 76.0002 93.9452 85.2002 87.0705 94.7702C84.6116 98.1902 82.0298 99.6802 77.4399 98.4702L105.02 62.3402L79.3455 29.7102C83.7613 28.8702 86.8144 29.3002 89.5192 33.1602C95.4923 41.6802 102.08 49.7902 108.647 58.3702C115.256 49.8202 121.761 41.7002 127.909 33.2602C130.378 29.8402 133.031 28.5402 137.468 29.8002C134.107 34.1502 130.818 38.4302 127.509 42.6802C123.042 48.4102 118.657 54.2102 114.026 59.8202C112.377 61.8202 112.643 63.1202 114.118 65.0102C122.684 76.0002 131.146 87.1002 139.865 98.4402ZM11.4492 61.7402C12.1869 58.1302 12.6786 54.4502 13.7032 50.9102C19.8504 29.4802 45.0541 20.5702 62.3689 33.8502C72.5118 41.6402 75.0322 52.6202 74.5302 65.0002H17.3608C16.5002 87.2102 32.8826 100.62 53.7627 93.7802C61.0882 91.3802 65.4015 85.7802 67.5633 78.7802C68.6595 75.2702 70.473 74.7202 73.854 75.7202C72.1225 84.4802 68.1985 91.8002 60.0022 96.3802C47.7077 103.24 30.1573 101.02 20.9262 91.4902C15.4756 85.8902 13.1602 78.9202 12.1356 71.3902C11.982 70.1902 11.6643 69.0102 11.4185 67.8202C11.4389 65.7935 11.4492 63.7668 11.4492 61.7402V61.7402ZM17.4632 60.2502H69.1308C68.7927 44.1902 58.5473 32.7802 44.5419 32.6802C29.1737 32.5602 18.1292 43.7002 17.4632 60.2502V60.2502Z" fill="black"/>
</svg>
